{"title":"Chappie [2015] BluRay Remux (No Cinavia) AC35.1","uid":12142300,"size":20380588791,"categoryP":"video","categoryS":"movies","magnet":"?xt=urn:btih:9101528ea2d24c48fb7e76e0681a22aa17ffa14d&amp;dn=Chappie+%5B2015%5D+BluRay+Remux+%28No+Cinavia%29+AC35.1&amp;tr=udp%3A%2F%2Ftracker.openbittorrent.com%3A80&amp;tr=udp%3A%2F%2Fopen.demonii.com%3A1337&amp;tr=udp%3A%2F%2Ftracker.coppersurfer.tk%3A6969&amp;tr=udp%3A%2F%2Fexodus.desync.com%3A6969","seeders":0,"leechers":1,"uploader":"AlienMethod","files":6,"time":1437367838,"description":"Mux From BluRay/MKV\nCinavia Removed/CinExHD (AC3@640kbps output)\nEnglish Subs\n\n&quot;In the near future, crime is patrolled by a mechanized police force. \nWhen one police droid, Chappie, is stolen and given new programming, he becomes\nthe first robot with the ability to think and feel for himself.&quot;\n\n\n\nGeneral\nComplete name : F:TorrentsChappie [2015] (NoCinavia) BluRayRemux\nAC3Chappie [2015] (NoCinavia) BluRayRemux AC3.mkv\nFormat : Matroska\nFormat version : Version 4 / Version 2\nFile size : 19.0 GiB\nDuration : 2h 0mn\nOverall bit rate mode : Variable\nOverall bit rate : 22.6 Mbps\nEncoded date : UTC 2015-07-17 15:18:00\nWriting application : mkvmerge v7.2.0 ('On Every Street') 64bit built on Sep 13 2014 15:52:10\nWriting library : libebml v1.3.0 + libmatroska v1.4.1\nDURATION : 01:54:27.342000000\nNUMBER_OF_FRAMES : 1878\nNUMBER_OF_BYTES : 71836\n_STATISTICS_WRITING_APP : mkvmerge v7.2.0 ('On Every Street') 64bit built on Sep 13 2014 15:52:10\n_STATISTICS_WRITING_DATE_UTC : 2015-07-17 15:18:00\n_STATISTICS_TAGS : BPS DURATION NUMBER_OF_FRAMES NUMBER_OF_BYTES\n\nVideo\nID : 1\nFormat : AVC\nFormat/Info : Advanced Video Codec\nFormat profile : &lt;a class=&quot;__cf_email__&quot; href=&quot;/cdn-cgi/l/email-protection&quot; data-cfemail=&quot;a7efcec0cfe7eb938996&quot;&gt;[email&amp;#160;protected]&lt;/a&gt;&lt;script data-cfhash='f9e31' type=&quot;text/javascript&quot;&gt;\n/* &lt;![CDATA[ */!function(){try{var t=&quot;currentScript&quot;in document?document.currentScript:function(){for(var t=document.getElementsByTagName(&quot;script&quot;),e=t.length;e--;)if(t[e].getAttribute(&quot;data-cfhash&quot;))return t[e]}();if(t&amp;&amp;t.previousSibling){var e,r,n,i,c=t.previousSibling,a=c.getAttribute(&quot;data-cfemail&quot;);if(a){for(e=&quot;&quot;,r=parseInt(a.substr(0,2),16),n=2;a.length-n;n+=2)i=parseInt(a.substr(n,2),16)^r,e+=String.fromCharCode(i);e=document.createTextNode(e),c.parentNode.replaceChild(e,c)}t.parentNode.removeChild(t);}}catch(u){}}()/* ]]&gt; */&lt;/script&gt;\nFormat settings, CABAC : Yes\nFormat settings, ReFrames : 2 frames\nFormat settings, GOP : M=1, N=10\nCodec ID : V_MPEG4/ISO/AVC\nDuration : 2h 0mn\nBit rate mode : Variable\nBit rate : 21.5 Mbps\nWidth : 1 920 pixels\nHeight : 1 080 pixels\nDisplay aspect ratio : 16:9\nFrame rate mode : Constant\nFrame rate : 23.976 fps\nColor space : YUV\nChroma subsampling : 4:2:0\nBit depth : 8 bits\nScan type : Progressive\nBits/(Pixel*Frame) : 0.432\nStream size : 18.1 GiB (95%)\nDefault : Yes\nForced : No\n\nAudio\nID : 2\nFormat : AC-3\nFormat/Info : Audio Coding 3\nMode extension : CM (complete main)\nFormat settings, Endianness : Big\nCodec ID : A_AC3\nDuration : 2h 0mn\nBit rate mode : Constant\nBit rate : 640 Kbps\nChannel(s) : 6 channels\nChannel positions : Front: L C R, Side: L R, LFE\nSampling rate : 48.0 KHz\nBit depth : 16 bits\nCompression mode : Lossy\nStream size : 551 MiB (3%)\nDefault : Yes\nForced : No\n\nText\nID : 3\nFormat : UTF-8\nCodec ID : S_TEXT/UTF8\nCodec ID/Info : UTF-8 Plain Text\nDefault : Yes\nForced : No","torrent":{"xt":"urn:btih:9101528ea2d24c48fb7e76e0681a22aa17ffa14d","amp;dn":"Chappie+%5B2015%5D+BluRay+Remux+%28No+Cinavia%29+AC35.1","amp;tr":["udp%3A%2F%2Ftracker.openbittorrent.com%3A80","udp%3A%2F%2Fopen.demonii.com%3A1337","udp%3A%2F%2Ftracker.coppersurfer.tk%3A6969","udp%3A%2F%2Fexodus.desync.com%3A6969"],"infoHash":"9101528ea2d24c48fb7e76e0681a22aa17ffa14d","infoHashBuffer":{"type":"Buffer","data":[145,1,82,142,162,210,76,72,251,126,118,224,104,26,34,170,23,255,161,77]},"announce":[],"urlList":[]}}